<svg width="1584" height="2814" viewBox="0 0 1584 2814" fill="none" xmlns="http://www.w3.org/2000/svg">
<g clip-path="url(#clip0)">
<rect width="1584" height="2814" fill="white"/>
<rect x="-64.2852" y="19" width="2583.41" height="2260.48" fill="#FFC3F1"/>
<path d="M2520.72 0.810547H-1279.08V2660.34H2520.72V0.810547Z" fill="url(#paint0_linear)"/>
<path d="M1519.89 1219.66V1226.82L1628.15 1209.4C1634.78 1211.68 1641.9 1214.28 1649.34 1217.05C1719.25 1241.79 1783.98 1211.68 1789.15 1210.21C1794.33 1208.75 1830.09 1192.31 1845.47 1225.35C1860.84 1258.39 1894.82 1262.63 1908.58 1250.09C1922.17 1237.72 1971.68 1238.7 1980.1 1225.84C1988.68 1212.98 2044.83 1161.22 2083.99 1214.93C2123.15 1268.65 2124.93 1187.1 2157.29 1175.22C2189.65 1163.34 2199.85 1194.26 2213.6 1202.56C2227.19 1210.87 2247.75 1181.73 2256.16 1172.45C2264.74 1163.17 2290.3 1145.76 2303.9 1175.22C2311.18 1190.84 2323.64 1188.24 2336.26 1185.8C2328.49 1149.01 2326.71 1109.46 2331.41 1070.72C2322.99 1062.58 2314.41 1055.09 2311.02 1044.19C2296.29 992.914 2276.06 952.872 2243.05 919.341C2224.77 900.785 2207.45 882.88 2191.43 864.161C2162.95 856.836 2115.54 849.023 2104.21 848.372C2087.87 847.233 2060.52 793.681 2034.79 765.684C2016.67 746.314 1994.18 726.456 1980.26 713.922C1974.27 708.551 1969.74 704.481 1968.12 702.365C1963.27 696.668 1855.01 770.241 1846.92 782.612C1838.67 794.983 1806.14 799.703 1797.89 796.61C1793.36 794.82 1707.11 847.395 1631.87 893.948C1631.87 893.948 1578.14 831.932 1539.79 791.239C1501.44 750.546 1477.49 712.295 1464.71 709.202C1460.83 708.225 1438.17 725.805 1407.26 751.36C1390.44 765.358 1346.42 728.734 1338.65 734.92C1317.29 751.848 1268.91 804.749 1251.76 819.073C1204.99 857.976 1207.74 916.411 1185.09 928.293C1125.86 959.382 1076.35 732.315 1068.42 726.618C1060.49 720.921 996.247 663.951 996.247 663.951C996.247 663.951 947.378 706.109 940.744 722.224C934.109 738.338 879.738 799.378 871.809 813.376C863.88 827.537 835.886 865.951 813.555 880.764V1225.19L1519.89 1219.66Z" fill="#FDF1F0"/>
<path d="M1102.07 717.172L1072.95 735.239C1084.11 727.752 1094.47 721.404 1102.07 717.172Z" fill="#DAECED"/>
<path d="M1302.08 739.149C1302.08 739.149 1271.01 775.447 1265.67 794.817C1260.33 814.187 1236.55 807.188 1228.78 831.929C1221.17 856.67 1191.08 867.413 1173.44 880.598C1155.8 893.782 1132.82 877.18 1114.38 896.875C1143.18 866.274 1170.36 838.277 1189.62 826.395C1238 796.445 1248.2 661.344 1248.2 661.344C1256.77 671.761 1285.09 734.591 1296.1 735.893C1297.55 735.893 1299.66 737.196 1302.08 739.149Z" fill="#F4868E"/>
<path d="M2509.72 901.757C2502.93 920.476 2497.26 954.658 2497.26 954.658C2497.26 954.658 2496.62 989.328 2495.32 1025.79C2491.12 1020.91 2482.22 1013.42 2474.93 1025.95C2466.68 1040.11 2433.83 1143.31 2434.96 1233.49C2325.74 1230.23 1883.33 1224.53 1427.49 1318.78C1424.57 1309.66 1422.31 1302.01 1418.1 1303.8C1410.33 1307.22 1415.35 1315.36 1409.04 1322.69C1406.45 1323.17 1403.86 1323.82 1401.11 1324.31C1394.31 1321.06 1386.39 1309.34 1381.69 1304.29C1375.38 1297.29 1365.03 1289.81 1360.33 1290.94C1355.64 1292.08 1352.24 1277.6 1337.84 1266.04C1323.44 1254.48 1304.51 1268.32 1305.64 1275.32C1306.77 1282.32 1289.46 1294.36 1287.84 1296.15C1286.06 1297.94 1269.39 1299.73 1263.08 1289.32C1256.77 1278.9 1244.15 1277.11 1237.19 1287.04C1230.23 1296.97 1202.56 1293.39 1195.12 1292.25C1187.67 1291.11 1179.58 1285.9 1174.89 1284.11C1170.36 1282.32 1155.96 1285.25 1149 1277.11C1142.04 1268.97 1125.37 1261.97 1110.32 1267.83C1095.27 1273.69 1103.37 1278.9 1079.26 1280.53C1054.98 1282.32 1075.21 1302.01 1027.47 1294.36C979.737 1286.88 977.31 1245.37 968.086 1222.09C958.863 1198.98 940.415 1208.26 932.81 1220.46C925.205 1232.84 917.437 1232.84 891.385 1222.09C865.332 1211.19 874.556 1205.16 862.257 1211.19C849.959 1217.37 830.056 1228.28 830.056 1211.19C830.056 1194.26 828.599 1203.54 813.227 1186.45L813.55 926.01C820.185 920.801 826.819 915.755 832.968 911.035C854.166 894.432 870.348 881.085 869.701 879.457C868.083 874.9 886.044 854.553 915.495 842.996C944.946 831.439 987.504 802.14 997.375 791.235C1001.1 787.165 1015.98 775.446 1034.11 762.261C1040.74 761.936 1051.42 760.959 1054.34 758.68C1058.7 755.262 1066.31 753.309 1078.45 750.379C1090.42 747.449 1102.56 754.285 1112.43 737.357C1118.25 727.428 1121.65 717.173 1123.59 710.337C1143.33 704.477 1179.26 687.549 1179.26 687.549C1179.26 687.549 1239.45 650.6 1248.03 661.017C1248.03 661.017 1237.84 796.118 1189.45 826.068C1170.2 837.95 1143.01 865.947 1114.21 896.548C1132.65 876.69 1155.63 893.293 1173.27 880.271C1190.91 867.086 1220.85 856.344 1228.61 831.602C1236.38 806.861 1260.17 813.86 1265.51 794.49C1270.85 775.12 1301.92 738.822 1301.92 738.822C1315.35 749.891 1338.97 784.561 1353.54 780.655C1370.69 775.934 1408.72 800.35 1408.72 805.07C1408.72 806.535 1411.47 813.046 1415.84 821.022C1415.84 821.022 1486.07 771.051 1493.35 761.122C1498.36 754.123 1513.41 746.472 1521.99 742.403C1524.58 741.264 1526.68 740.287 1527.65 739.799C1528.14 739.636 1528.46 739.473 1528.46 739.473C1528.46 739.473 1534.93 747.775 1541.57 754.448C1543.83 756.727 1546.1 758.68 1548.04 760.308C1550.95 762.587 1556.29 762.912 1562.12 761.936C1572.15 760.471 1583.96 755.425 1588.17 751.03C1594.64 744.031 1635.58 721.731 1638.17 714.732C1640.6 707.733 1668.43 687.712 1675.07 686.084C1675.55 685.921 1676.04 686.084 1676.69 686.41C1677.17 686.735 1677.66 687.061 1678.14 687.549C1685.1 693.897 1697.56 718.638 1707.43 730.521C1709.7 733.288 1711.8 735.241 1713.58 736.218L1725.72 717.173C1725.72 717.173 1757.76 785.7 1760.35 781.794C1761.8 779.352 1786.4 755.913 1806.46 735.404C1818.76 722.87 1829.44 711.476 1832.36 706.756C1838.18 696.827 1863.75 765.028 1884.14 789.119C1910.03 777.725 1916.82 774.632 1918.12 773.981L1918.28 773.818C1922.33 772.19 1951.78 815.488 1956.79 815.488C1961.65 815.488 1985.43 794.653 1988.67 796.118C1988.67 796.118 1988.83 796.118 1988.99 796.281C1992.23 798.071 2020.39 812.883 2029.61 807.675L2030.1 807.349C2058.9 787.491 2112.46 734.427 2126.05 725.8C2133.5 721.243 2150.65 750.216 2154.21 747.124C2154.21 747.124 2162.3 779.515 2182.21 813.534C2223.15 716.685 2216.83 695.036 2216.83 695.036C2216.83 695.036 2260.69 732.474 2274.12 753.797C2286.9 773.818 2301.14 778.213 2313.44 776.911C2313.44 776.911 2312.63 840.555 2329.46 871.97C2366.19 798.234 2376.06 728.079 2376.06 728.079C2376.87 730.358 2402.76 803.28 2416.52 813.372C2430.27 823.626 2446.45 842.02 2452.28 851.298C2458.1 860.576 2470.4 870.667 2472.34 878.481C2472.67 879.294 2500.5 891.991 2509.72 901.757Z" fill="#F5D7E8"/>
<path d="M1123.76 710.666C1121.82 717.502 1118.42 727.757 1112.6 737.686C1102.73 754.614 1090.75 747.778 1078.62 750.708C1066.64 753.638 1058.87 755.591 1054.5 759.009C1051.59 761.288 1040.91 762.265 1034.28 762.59C1046.58 753.638 1060.33 743.871 1072.95 735.57L1102.08 717.502C1107.58 714.573 1111.79 712.782 1113.89 712.782C1116.16 712.619 1119.56 711.805 1123.76 710.666Z" fill="#F4868E"/>
<path d="M1562.61 762.102C1549.5 768.124 1479.92 814.026 1473.45 846.255C1463.58 894.924 1432.51 891.017 1411.8 912.992C1391.73 934.315 1335.58 962.637 1332.02 964.428C1391.41 929.269 1485.1 797.098 1522.32 742.406C1524.91 741.267 1527.01 740.29 1527.98 739.802C1528.47 739.639 1528.79 739.477 1528.79 739.477C1528.79 739.477 1535.26 747.778 1541.9 754.452C1544.16 756.73 1546.43 758.684 1548.37 760.311C1551.44 762.753 1556.78 763.079 1562.61 762.102Z" fill="#F4868E"/>
<path d="M2181.71 1219.16C2181.71 1266.53 1844.16 1304.94 1427.81 1304.94C1260.16 1304.94 1105.3 1298.76 980.218 1288.18C794.451 1272.55 674.059 1247.48 674.059 1219.16C674.059 1211.02 684.091 1203.05 702.862 1195.56C774.548 1166.91 973.745 1144.45 1226.02 1136.47C1290.26 1134.52 1357.9 1133.38 1427.81 1133.38C1844.16 1133.38 2181.71 1171.79 2181.71 1219.16Z" fill="url(#paint1_linear)"/>
<path opacity="0.45" d="M1447.11 1357.16C2053.39 1357.16 2544.88 1286.47 2544.88 1199.27C2544.88 1112.07 2053.39 1041.38 1447.11 1041.38C840.829 1041.38 349.34 1112.07 349.34 1199.27C349.34 1286.47 840.829 1357.16 1447.11 1357.16Z" fill="url(#paint2_radial)"/>
<path d="M1121.8 1237.72H1397.22C1397.22 1237.72 1120.67 1242.93 1121.8 1242.6C1122.94 1242.11 812.246 1242.76 812.246 1242.76L1121.8 1237.72Z" fill="#FEF8FB"/>
<path d="M1639.95 1186.93H1915.36C1915.36 1186.93 1638.82 1192.3 1639.95 1191.81C1641.08 1191.32 1330.39 1191.98 1330.39 1191.98L1639.95 1186.93Z" fill="#FEF8FB"/>
<path d="M1249.8 1145.75H1423.11C1423.11 1145.75 1248.99 1149.5 1249.8 1149.17C1250.45 1148.84 1054.97 1149.17 1054.97 1149.17L1249.8 1145.75Z" fill="#FEF8FB"/>
<path d="M1608.39 1230.23H1781.7C1781.7 1230.23 1607.58 1233.97 1608.39 1233.65C1609.04 1233.32 1413.56 1233.65 1413.56 1233.65L1608.39 1230.23Z" fill="#FEF8FB"/>
<path d="M1065.66 1192.14H1238.96C1238.96 1192.14 1064.85 1195.88 1065.66 1195.56C1066.3 1195.23 870.828 1195.56 870.828 1195.56L1065.66 1192.14Z" fill="#FEF8FB"/>
<path d="M1570.68 1147.54H1654.99C1654.99 1147.54 1570.36 1151.12 1570.68 1150.96C1571.01 1150.63 1475.86 1150.96 1475.86 1150.96L1570.68 1147.54Z" fill="#FEF8FB"/>
<path d="M1379.74 1175.38H1464.05C1464.05 1175.38 1379.42 1178.96 1379.74 1178.79C1380.07 1178.63 1284.92 1178.79 1284.92 1178.79L1379.74 1175.38Z" fill="#FEF8FB"/>
<path d="M1187.5 1170.33H1271.81C1271.81 1170.33 1187.18 1173.09 1187.5 1172.93C1187.83 1172.77 1092.68 1172.93 1092.68 1172.93L1187.5 1170.33Z" fill="#FEF8FB"/>
<path d="M1481.2 1217.54H1565.51C1565.51 1217.54 1480.88 1221.12 1481.2 1220.95C1481.53 1220.79 1386.38 1220.95 1386.38 1220.95L1481.2 1217.54Z" fill="#FEF8FB"/>
<path d="M993.158 1166.42C993.319 1166.75 993.481 1167.24 993.481 1167.56C993.643 1167.89 993.643 1168.21 993.481 1168.54L957.72 1170.17C923.576 1167.07 874.384 1160.89 863.056 1162.35C828.104 1166.91 797.196 1171.79 771.144 1177C742.34 1182.86 719.2 1189.05 702.857 1195.56C684.733 1191.98 666.609 1188.72 648.809 1185.47L441.035 1130.78L354.625 1107.99L-495.242 884.339C-489.093 882.548 -482.944 880.595 -476.633 878.804C-428.088 864.643 -378.895 852.435 -329.864 841.855C-328.084 841.367 -326.143 841.041 -324.363 840.716C-319.994 839.739 -315.786 838.925 -311.417 837.949C8.65839 771.7 319.348 775.932 396.05 778.048C407.863 778.374 414.012 778.7 414.012 778.7C414.012 778.7 790.724 771.049 1226.01 1136.47C1178.76 1137.94 1138.79 1139.57 1101.25 1141.52C1063.71 1143.47 1028.6 1145.91 990.73 1149.33C989.274 1149.49 988.141 1149.66 987.17 1149.98C986.685 1150.15 986.361 1150.31 986.038 1150.63C981.507 1153.73 991.054 1161.21 993.158 1166.42Z" fill="url(#paint3_linear)"/>
<path d="M1007.89 1168.87C1007.73 1170.33 1006.27 1171.31 1002.55 1171.8C997.212 1172.28 985.561 1171.63 970.998 1170.49C936.045 1167.56 885.234 1161.7 873.583 1163.01C837.66 1167.24 805.944 1171.96 778.92 1177C666.133 974.842 -110.916 994.7 -24.3434 932.684C68.8636 865.947 367.579 865.947 367.579 865.947C367.579 865.947 883.778 876.202 1000.93 1150.96C993.652 1153.4 1004.66 1161.38 1007.08 1166.75L1007.89 1168.87Z" fill="url(#paint4_linear)"/>
<path d="M950.943 1187.75C950.781 1189.38 949.486 1190.51 945.765 1191C940.586 1191.65 929.097 1190.84 915.181 1189.38C881.037 1186.12 831.845 1179.45 820.518 1181.07C785.565 1185.96 743.007 1184.82 716.954 1190.51C310.63 1242.6 -136.797 991.445 -52.4896 921.453C38.1283 846.252 328.753 846.252 328.753 846.252C328.753 846.252 830.712 857.809 944.632 1167.73C937.512 1170.49 948.354 1179.61 950.619 1185.47L950.943 1187.75Z" fill="url(#paint5_linear)"/>
<path d="M700.115 1195.37L-2275.68 1474.55L-2276 1053.95C-2276 1053.95 -913.537 855.853 -476.791 878.804C-379.862 883.85 -279.373 892.477 -178.561 905.661C-38.7502 924.054 101.548 951.4 233.915 991.117C387.641 1037.34 581.664 1110.24 700.115 1195.37Z" fill="url(#paint6_linear)"/>
<path d="M999.66 1280.25L938.007 1297.34L-2265.46 1992.53L-2265.3 1403.94C-2265.3 1403.94 -713.019 953.564 606.443 1194.63C624.405 1197.88 642.366 1201.3 660.49 1204.72C768.908 1225.56 882.019 1250.62 999.66 1280.25Z" fill="url(#paint7_linear)"/>
<path d="M1477.65 1469.02L2520.73 1590.45L2520.89 1219.16C2520.89 1219.16 2322.98 1177.98 2086.73 1198.33C1961.48 1209.07 1825.39 1237.07 1702.25 1297.46C1619.08 1338.31 1541.73 1393.98 1477.65 1469.02Z" fill="url(#paint8_linear)"/>
<path opacity="0.45" d="M1443.51 1470.32C1791.6 1470.32 2073.79 1319.47 2073.79 1133.38C2073.79 947.294 1791.6 796.441 1443.51 796.441C1095.41 796.441 813.227 947.294 813.227 1133.38C813.227 1319.47 1095.41 1470.32 1443.51 1470.32Z" fill="url(#paint9_radial)"/>
<path d="M1299.97 1191.17V1196.38L1285.57 1203.05L1299.97 1191.17Z" fill="#A15D68"/>
<path d="M1455.65 1190.68L1455.81 1295.67H1298.53L1298.36 1190.19L1365.19 1135.34C1367.94 1133.06 1371.83 1132.89 1374.74 1135.01L1452.74 1189.21C1453.87 1189.54 1454.68 1190.19 1455.65 1190.68Z" fill="#D6A49B"/>
<path d="M1510.01 1180.91V1270.11L1455.64 1295.5V1191.82C1460.17 1194.26 1465.51 1195.07 1470.69 1194.09C1482.02 1192.14 1499.98 1188.07 1510.01 1180.91Z" fill="#D6A49B"/>
<path d="M1388.48 1223.39H1362.11V1283.95H1388.48V1223.39Z" fill="#C16F77"/>
<path d="M1517.62 1169.84C1517.62 1174.23 1514.71 1177.98 1510.18 1181.23C1500.15 1188.23 1482.02 1192.3 1470.86 1194.26C1465.68 1195.07 1460.5 1194.26 1455.81 1191.98C1454.84 1191.49 1453.87 1191 1453.06 1190.35L1375.87 1136.63C1372.96 1134.68 1369.07 1134.84 1366.32 1136.96L1285.57 1203.21C1283.96 1203.86 1279.43 1201.42 1280.56 1198.16C1281.53 1194.91 1359.36 1132.89 1367.29 1126.38C1373.93 1120.85 1384.61 1124.59 1396.91 1118.24C1407.75 1112.71 1419.4 1110.43 1419.4 1110.43C1419.4 1110.43 1517.62 1158.77 1517.62 1169.84Z" fill="white"/>
<path d="M1484.61 1161.38C1479.76 1168.7 1467.13 1169.52 1467.13 1169.52C1466.97 1168.22 1467.13 1157.31 1467.13 1157.31C1467.13 1157.31 1472.31 1139.89 1476.03 1136.96C1479.76 1140.06 1484.61 1149.17 1484.61 1149.17C1484.61 1149.17 1485.26 1160.4 1484.61 1161.38Z" fill="#C16F77"/>
<path d="M1482.02 1160.08C1482.51 1159.26 1482.02 1151.45 1482.02 1151.45C1482.02 1151.45 1478.62 1145.1 1475.87 1142.82C1473.28 1144.94 1469.56 1157.15 1469.56 1157.15C1469.56 1157.15 1469.56 1164.8 1469.56 1165.77C1469.72 1165.94 1478.62 1165.12 1482.02 1160.08Z" fill="#FDF6AD"/>
<path d="M1466.97 1157.47C1466.97 1157.47 1466.81 1168.37 1466.97 1169.68L1447.88 1156.66C1442.86 1143.8 1436.39 1133.38 1436.39 1133.38L1475.87 1137.12C1472.15 1140.05 1466.97 1157.47 1466.97 1157.47Z" fill="#F6EBF3"/>
<path d="M1371.17 1142.34L1383.14 1153.08V1165.13C1383.14 1165.13 1372.14 1164.64 1371.17 1165.13C1370.2 1164.64 1359.2 1165.13 1359.2 1165.13V1153.08L1371.17 1142.34Z" fill="#C16F77"/>
<path d="M1370.69 1145.76L1360.66 1154.38V1163.01C1360.66 1163.01 1369.88 1162.52 1370.69 1163.01C1371.5 1162.52 1380.72 1163.01 1380.72 1163.01V1154.38L1370.69 1145.76Z" fill="#FDF6AD"/>
<path d="M1348.36 1174.73V1198.65H1396.1V1174.73H1348.36ZM1393.34 1196.05H1350.14V1177.33H1393.34V1196.05Z" fill="#C16F77"/>
<path d="M1393.5 1177.33H1350.3V1196.05H1393.5V1177.33Z" fill="#FDF6AD"/>
<path d="M1344.31 1245.37H1339.94H1325.21V1210.38H1344.31V1245.37Z" fill="#FDF6AD"/>
<path d="M1353.87 1208.59H1344.32V1247.16H1353.87V1208.59Z" fill="#C16F77"/>
<path d="M1325.22 1208.59H1315.67V1247.16H1325.22V1208.59Z" fill="#C16F77"/>
<path d="M1334.77 1210.38V1245.37" stroke="#C16F77" stroke-miterlimit="10"/>
<path d="M1345.45 1227.79H1323.93" stroke="#C16F77" stroke-miterlimit="10"/>
<path d="M1425.54 1210.38H1406.45V1245.37H1425.54V1210.38Z" fill="#FDF6AD"/>
<path d="M1435.09 1208.59H1425.55V1247.16H1435.09V1208.59Z" fill="#C16F77"/>
<path d="M1406.45 1208.59H1396.9V1247.16H1406.45V1208.59Z" fill="#C16F77"/>
<path d="M1415.99 1210.38V1245.37" stroke="#C16F77" stroke-miterlimit="10"/>
<path d="M1425.54 1227.79H1406.45" stroke="#C16F77" stroke-miterlimit="10"/>
<path d="M1371.82 1177.33V1196.05" stroke="#C16F77" stroke-miterlimit="10"/>
<path d="M1393.34 1186.61H1350.3" stroke="#C16F77" stroke-miterlimit="10"/>
<path d="M1370.69 1145.76V1163.17" stroke="#C16F77" stroke-miterlimit="10"/>
<path d="M1360.66 1156.66H1380.88" stroke="#C16F77" stroke-miterlimit="10"/>
<path d="M1475.87 1142.98L1476.35 1164.31" stroke="#C16F77" stroke-miterlimit="10"/>
<path d="M1482.02 1151.45C1482.02 1151.45 1472.31 1156.98 1469.72 1157.15" stroke="#C16F77" stroke-miterlimit="10"/>
<path d="M1500.95 1225.51L1492.7 1229.58V1204.68L1500.95 1200.93V1225.51Z" fill="#A8626D"/>
<path d="M1476.35 1236.91L1468.1 1240.65V1216.07L1476.35 1212.33V1236.91Z" fill="#A8626D"/>
<path d="M1492.71 1227.79L1476.36 1235.44V1213.14L1492.71 1205.65V1227.79Z" fill="#FDF6AD"/>
<path d="M1484.45 1209.39V1231.53" stroke="#A8626D" stroke-miterlimit="10"/>
<path d="M1492.71 1216.72L1476.36 1224.37" stroke="#A8626D" stroke-miterlimit="10"/>
<path d="M-2233 2661.16V1912.41C554.477 674.686 2522.03 1587.84 2522.03 1587.84V2661.16L146 2891L-2233 2661.16Z" fill="url(#paint10_linear)"/>
<path d="M1421.82 1587.02C1385.73 1600.7 1170.35 1684.36 1102.55 1713.34C1036.13 1736.43 919.748 1782.91 995.183 1802.31C1089.48 1826.57 1190.5 1926.5 1199.7 1944.38C1289.87 2089.08 1205.97 2243.25 1159 2301L1141.5 2303C1260.7 2167.8 1231.34 2006.3 1195.01 1944.7C1186.5 1927.79 1084.78 1826.89 990.49 1802.64C915.055 1783.23 1030.91 1734.91 1098.13 1713.34C1166.1 1684.53 1380.71 1600.05 1417.12 1587.19C1472.3 1567.49 1514.86 1501.57 1477.64 1433.21C1439.45 1363.21 1373.43 1357.35 1358.87 1334.57C1344.3 1311.78 1365.91 1284 1365.91 1284H1368.5C1368.5 1284 1345.76 1309.99 1360.32 1332.77C1374.89 1355.56 1443.18 1362.4 1479.75 1430.93C1517.61 1501.57 1475.86 1566.52 1421.82 1587.02Z" fill="#F4888E"/>
<path d="M1447.94 1587.1C1411.85 1600.78 1196.47 1684.44 1128.67 1713.42C1062.25 1736.51 945.869 1782.99 1021.3 1802.39C1115.6 1826.65 1216.62 1926.58 1225.83 1944.46C1315.99 2089.16 1237.97 2239.33 1191 2297.08L1173.5 2299.08C1292.7 2163.88 1257.46 2006.38 1221.13 1944.78C1212.62 1927.87 1110.91 1826.97 1016.61 1802.72C941.176 1783.31 1057.03 1734.99 1124.26 1713.42C1192.22 1684.61 1406.83 1600.13 1443.24 1587.27C1498.42 1567.57 1540.98 1501.65 1503.76 1433.29C1465.57 1363.29 1399.55 1357.43 1384.99 1334.65C1370.43 1311.86 1383.86 1284 1383.86 1284H1386.45C1386.45 1284 1371.88 1310.07 1386.45 1332.85C1401.01 1355.64 1469.3 1362.48 1505.87 1431.01C1543.73 1501.65 1501.98 1566.6 1447.94 1587.1Z" fill="#F4888E"/>
<path d="M2944.13 2508.3V3217.99H-856L-855.838 2892.12C-832.536 2887.23 -804.38 2883.16 -770.884 2879.91C287.404 2776.87 136.914 2523.44 840.983 2367.18C866.712 2361.48 892.118 2356.11 917.361 2350.9V2369.62C911.859 2373.2 904.901 2377.76 896.648 2383.29C939.692 2376.13 982.088 2369.78 1023.84 2364.08C1030.47 2359.53 1036.78 2355.13 1042.77 2351.22C1067.37 2334.62 1085.49 2323.55 1094.39 2318.18C1173.36 2305.32 1250.06 2294.91 1324.49 2286.93V2314.76C1351.03 2312.16 1377.09 2309.88 1402.98 2307.76C1432.1 2289.21 1452.49 2277.98 1460.58 2274.4C1478.22 2273.09 1495.86 2271.95 1513.17 2270.81C1514.79 2270.65 1516.41 2270.65 1517.87 2270.49C1533.89 2269.51 1549.74 2268.7 1565.6 2268.05C1567.22 2267.88 1568.68 2267.88 1570.13 2267.88C2451.39 2228.01 2944.13 2508.3 2944.13 2508.3Z" fill="url(#paint11_linear)"/>
<path d="M917.361 2379.87C664.278 2563.31 475.113 2762.22 338.539 3066.12C483.042 2684.91 765.091 2456.54 880.305 2375.64C896.001 2364.57 908.623 2356.43 917.361 2350.73V2379.87Z" fill="#C16F77"/>
<path d="M1024 2364.09C1023.83 2364.25 1023.67 2364.25 1023.51 2364.41C857.971 2479 468.961 2784.2 392.421 3217.99H290.961C304.23 3164.92 320.25 3114.3 338.535 3066.12C475.11 2762.39 664.275 2563.48 917.358 2379.87C953.443 2374.18 989.043 2368.97 1024 2364.09Z" fill="#F4888E"/>
<path d="M1324.66 2287.09V2314.93C1102 2433.91 828.201 2675.47 690.656 3003.94C872.216 2507.81 1300.22 2298.65 1324.66 2287.09Z" fill="#C16F77"/>
<path d="M1402.98 2307.93C1402.82 2308.09 1402.66 2308.09 1402.5 2308.26C1240.36 2411.78 802.964 2740.58 730.794 3217.99H632.57C646.487 3141.49 666.39 3070.19 690.501 3003.94C828.046 2675.47 1101.84 2433.92 1324.5 2314.93C1351.04 2312.32 1377.26 2310.05 1402.98 2307.93Z" fill="#F4888E"/>
<g style="mix-blend-mode:overlay" opacity="0.5">
<rect y="1" width="1584" height="2813" fill="#C40052"/>
</g>
</g>
<defs>
<linearGradient id="paint0_linear" x1="620.856" y1="2660.36" x2="620.856" y2="0.810547" gradientUnits="userSpaceOnUse">
<stop offset="0.00632283" stop-color="white"/>
<stop offset="1" stop-color="#FED5DF"/>
</linearGradient>
<linearGradient id="paint1_linear" x1="1454.22" y1="915.711" x2="1385.45" y2="1697.03" gradientUnits="userSpaceOnUse">
<stop stop-color="#6DA9CC"/>
<stop offset="0.6057" stop-color="#FBD7E7"/>
</linearGradient>
<radialGradient id="paint2_radial" cx="0" cy="0" r="1" gradientUnits="userSpaceOnUse" gradientTransform="translate(1447.18 1199.23) scale(1097.71 158.119)">
<stop stop-color="#52C9EF"/>
<stop offset="0.0707634" stop-color="#6DCFF1"/>
<stop offset="0.2131" stop-color="#A6DFF6"/>
<stop offset="0.4124" stop-color="#F6FCFE"/>
<stop offset="0.4268" stop-color="white"/>
<stop offset="0.6045" stop-color="#FFFEF8" stop-opacity="0.69"/>
<stop offset="0.8439" stop-color="#FFFDEA" stop-opacity="0.2723"/>
<stop offset="1" stop-color="#FFFCDF" stop-opacity="0"/>
</radialGradient>
<linearGradient id="paint3_linear" x1="320.056" y1="1150.74" x2="450.23" y2="752.459" gradientUnits="userSpaceOnUse">
<stop stop-color="#F8BAC4"/>
<stop offset="0.2358" stop-color="#FBD7E7"/>
<stop offset="1" stop-color="#FFF3F9"/>
</linearGradient>
<linearGradient id="paint4_linear" x1="392.616" y1="1221.93" x2="749.961" y2="606.619" gradientUnits="userSpaceOnUse">
<stop stop-color="#EE408B"/>
<stop offset="0.1055" stop-color="#F0669B"/>
<stop offset="0.3376" stop-color="#F6ABC5"/>
<stop offset="0.4797" stop-color="#FBD7E7"/>
<stop offset="0.6911" stop-color="white"/>
</linearGradient>
<linearGradient id="paint5_linear" x1="411.711" y1="1184.83" x2="498.025" y2="864.589" gradientUnits="userSpaceOnUse">
<stop offset="0.0203252" stop-color="#F8BAC4"/>
<stop offset="0.313" stop-color="#FBD7E7"/>
<stop offset="1" stop-color="#FFF5F7"/>
</linearGradient>
<linearGradient id="paint6_linear" x1="-339.203" y1="1389.16" x2="-287.453" y2="840.638" gradientUnits="userSpaceOnUse">
<stop stop-color="#FBEBEC"/>
<stop offset="0.411458" stop-color="#FFE9F3"/>
<stop offset="1" stop-color="#FAF1F2"/>
</linearGradient>
<linearGradient id="paint7_linear" x1="-108.966" y1="1870.5" x2="-135.988" y2="1101.23" gradientUnits="userSpaceOnUse">
<stop stop-color="#F5DFDC"/>
<stop offset="0.5643" stop-color="#FEE8EC"/>
<stop offset="1" stop-color="#FFEEEB"/>
</linearGradient>
<linearGradient id="paint8_linear" x1="1997.47" y1="1542.55" x2="2052.73" y2="1151.61" gradientUnits="userSpaceOnUse">
<stop offset="0.00203252" stop-color="#F58C7A"/>
<stop offset="0.0210132" stop-color="#F6907F"/>
<stop offset="0.1487" stop-color="#F8A89F"/>
<stop offset="0.274" stop-color="#F9BCBB"/>
<stop offset="0.3947" stop-color="#FACBD1"/>
<stop offset="0.509" stop-color="#FBD4E0"/>
<stop offset="0.6098" stop-color="#FBD7E7"/>
<stop offset="1" stop-color="#FEEEEB"/>
</linearGradient>
<radialGradient id="paint9_radial" cx="0" cy="0" r="1" gradientUnits="userSpaceOnUse" gradientTransform="translate(1443.58 1133.41) scale(630.301 336.981)">
<stop stop-color="white"/>
<stop offset="0.31" stop-color="#FFFEF8" stop-opacity="0.69"/>
<stop offset="0.7277" stop-color="#FFFDEA" stop-opacity="0.2723"/>
<stop offset="1" stop-color="#FFFCDF" stop-opacity="0"/>
</radialGradient>
<linearGradient id="paint10_linear" x1="695.468" y1="2828.79" x2="533.353" y2="1295.42" gradientUnits="userSpaceOnUse">
<stop offset="0.2033" stop-color="#FAD6D5"/>
<stop offset="0.6188" stop-color="#FBD2DD"/>
<stop offset="0.6707" stop-color="#FBD7E7"/>
<stop offset="0.76" stop-color="#FBDDEA"/>
<stop offset="0.8912" stop-color="#FDECF3"/>
<stop offset="1" stop-color="#FFF4F3"/>
</linearGradient>
<linearGradient id="paint11_linear" x1="1067.74" y1="3316.91" x2="1013.99" y2="2297.36" gradientUnits="userSpaceOnUse">
<stop stop-color="#F37361"/>
<stop offset="0.0584335" stop-color="#F48474"/>
<stop offset="0.1514" stop-color="#F69C92"/>
<stop offset="0.2483" stop-color="#F8B1AE"/>
<stop offset="0.3486" stop-color="#FAC1C4"/>
<stop offset="0.4538" stop-color="#FACDD6"/>
<stop offset="0.5672" stop-color="#FBD5E1"/>
<stop offset="0.7033" stop-color="#FBD7E7"/>
<stop offset="1" stop-color="#FFEDE6"/>
</linearGradient>
<clipPath id="clip0">
<rect width="1584" height="2814" fill="white"/>
</clipPath>
</defs>
</svg>
